<?xml version="1.0" standalone="no"?>
<!DOCTYPE svg PUBLIC "-//W3C//DTD SVG 20010904//EN"
 "http://www.w3.org/TR/2001/REC-SVG-20010904/DTD/svg10.dtd">
<svg version="1.0" xmlns="http://www.w3.org/2000/svg"
 width="2000.000000pt" height="2000.000000pt" viewBox="0 0 2000.000000 2000.000000"
 preserveAspectRatio="xMidYMid meet">
<metadata>
Created by potrace 1.14, written by Peter Selinger 2001-2017
</metadata>
<g transform="translate(0.000000,2000.000000) scale(0.100000,-0.100000)"
fill="#000000" stroke="none">
<path d="M9760 19754 c-140 -81 -268 -154 -285 -164 -16 -9 -169 -97 -340
-195 -311 -179 -894 -513 -950 -545 -16 -10 -149 -86 -295 -170 -146 -84 -285
-164 -310 -177 -25 -14 -61 -35 -80 -47 -19 -11 -51 -30 -71 -41 -43 -24 -598
-343 -619 -356 -21 -13 -246 -141 -300 -171 -25 -14 -61 -34 -80 -45 -19 -12
-93 -54 -165 -96 -71 -41 -181 -104 -244 -141 -62 -36 -115 -66 -116 -66 -2 0
-49 -27 -105 -60 -56 -33 -104 -60 -106 -60 -2 0 -23 -12 -47 -27 -23 -14 -67
-40 -97 -56 -30 -16 -62 -36 -71 -43 -8 -8 -18 -14 -21 -14 -3 0 -77 -41 -164
-91 -88 -50 -174 -100 -192 -110 -92 -53 -183 -105 -237 -137 -33 -19 -78 -44
-100 -57 -36 -20 -328 -187 -830 -477 -104 -60 -197 -113 -205 -118 -66 -39
-191 -110 -195 -110 -3 0 -28 -15 -57 -32 -29 -18 -65 -40 -80 -48 -23 -13
-568 -326 -646 -371 -15 -9 -47 -27 -72 -41 -25 -14 -133 -76 -240 -138 -230
-132 -522 -301 -548 -315 -10 -5 -125 -71 -255 -145 l-236 -135 0 -4950 0
-4950 165 -95 c204 -116 272 -155 304 -173 14 -7 143 -82 288 -165 144 -84
267 -152 272 -152 6 0 10 -4 10 -10 0 -5 4 -10 9 -10 5 0 75 -38 156 -85 81
-47 150 -85 152 -85 3 0 17 -8 31 -19 15 -10 47 -29 72 -43 25 -14 68 -38 95
-53 28 -15 62 -36 77 -46 14 -11 28 -19 31 -19 3 0 58 -31 123 -68 66 -38 139
-80 164 -94 25 -14 86 -49 135 -78 50 -29 106 -62 125 -73 19 -11 96 -54 170
-97 74 -43 153 -88 175 -100 22 -12 67 -38 100 -57 33 -19 67 -38 75 -43 8 -5
186 -107 394 -227 208 -120 415 -239 460 -264 45 -25 185 -106 311 -179 127
-73 246 -142 265 -153 19 -10 76 -43 125 -72 50 -29 115 -66 145 -83 30 -16
186 -105 345 -197 160 -92 306 -176 325 -187 19 -11 169 -97 333 -192 357
-205 317 -183 402 -230 39 -22 133 -76 210 -121 77 -45 147 -84 155 -88 8 -4
31 -17 50 -28 19 -12 53 -32 75 -44 136 -78 292 -166 305 -174 16 -10 249
-144 310 -179 19 -10 60 -34 90 -52 30 -18 75 -44 100 -58 51 -29 437 -250
670 -385 85 -49 304 -174 485 -278 l331 -189 184 106 c102 59 205 118 230 132
25 14 162 93 305 175 143 82 276 159 295 170 42 23 791 453 1008 579 85 48
157 88 160 88 3 0 13 6 21 14 9 7 41 27 71 44 30 16 84 47 120 67 36 21 80 46
98 56 18 11 66 38 105 61 40 22 90 51 112 63 22 12 112 64 200 115 144 84 511
295 593 341 17 11 47 27 65 37 17 11 172 99 342 197 171 98 423 243 560 321
138 79 255 146 261 151 5 4 28 17 50 29 34 19 257 146 339 194 17 10 75 43
130 75 55 31 114 65 130 75 17 9 143 81 280 160 138 79 262 150 277 159 31 18
315 181 394 226 29 17 142 81 251 144 109 63 218 125 243 139 25 14 57 33 72
43 14 11 29 19 32 19 4 0 23 11 44 23 20 13 57 35 82 49 25 14 122 69 215 123
94 54 188 108 210 119 22 12 42 23 45 26 3 3 131 77 285 165 154 88 287 165
297 170 9 6 68 39 130 75 62 35 125 71 139 80 14 8 74 42 132 75 l107 60 0
4951 0 4950 -42 22 c-24 12 -50 26 -58 32 -31 20 -152 90 -156 90 -2 0 -27 14
-56 31 -29 18 -67 40 -84 49 -17 10 -123 71 -235 135 -112 65 -220 127 -239
138 -19 10 -55 31 -80 46 -25 14 -61 35 -81 46 -32 18 -631 362 -669 385 -36
21 -431 247 -490 280 -36 20 -146 84 -245 141 -99 58 -187 108 -195 112 -8 4
-28 15 -45 25 -16 10 -50 30 -75 44 -25 14 -68 39 -96 55 -27 17 -70 41 -95
55 -24 14 -131 75 -237 137 -107 61 -198 111 -203 111 -5 0 -9 5 -9 10 0 6 -4
10 -10 10 -5 0 -81 41 -167 91 -87 51 -174 101 -193 112 -19 11 -154 88 -300
172 -146 83 -286 163 -312 178 -25 14 -64 37 -87 51 -22 14 -42 26 -45 26 -3
0 -238 134 -296 169 -14 9 -351 202 -395 227 -11 6 -76 44 -145 84 -69 39
-143 82 -165 95 -78 44 -113 64 -445 255 -734 422 -800 460 -915 525 -27 15
-54 31 -60 35 -5 4 -30 18 -55 32 -51 28 -960 550 -1260 723 -107 62 -213 122
-235 134 -53 29 -75 42 -104 64 -13 9 -26 17 -30 17 -3 0 -121 -66 -261 -146z"/>
</g>
</svg>
